<svg width="64" height="64" viewBox="0 0 64 64" fill="none" xmlns="http://www.w3.org/2000/svg">
<path d="M30.7814 31.1879L15.6697 40.2524L3.98289 25.9509L13.0289 9.55071L30.7814 12.9316V31.1879Z" fill="#1A4A85" stroke="#121212"/>
<path d="M33.2187 12.9316L50.9712 9.55071L60.0172 25.9509L48.3303 40.2524L33.2187 31.1879V12.9316Z" fill="#1A4A85" stroke="#121212"/>
<path d="M22.9315 60.1502L16.9199 42.4463L31.9584 33.3769L47.0798 42.4472L41.0684 60.1502H22.9315Z" fill="#1A4A85" stroke="#121212"/>
<path d="M19.7901 58.711L13.3921 54.8255L3.62811 37.3353V29.5201L14.1075 42.3086L14.3272 42.8431L19.7901 58.711Z" fill="#1A4A85" stroke="#121212"/>
<path d="M44.2018 58.7159L49.5797 42.8686L49.8746 42.3305L60.3719 29.5201V37.3353L50.6079 54.8255L44.2018 58.7159Z" fill="#1A4A85" stroke="#121212"/>
<path d="M48.1615 7.51633L32.2478 10.6072H31.7522L15.8384 7.51633L22.2882 3.67334H41.7117L48.1615 7.51633Z" fill="#1A4A85" stroke="#121212"/>
<path d="M53.1783 6.25896L42.7794 0H21.2206L10.8217 6.25896L0 25.7411V38.259L10.8217 57.741L21.2206 64H42.7794L53.1783 57.741L64 38.259V25.7411L53.1783 6.25896ZM62.2246 37.73L51.8256 56.4187L42.1876 62.2369H21.5588L11.9207 56.4187L1.5218 37.73V26.1818L11.9207 7.49311L21.5588 1.67495H42.2721L51.9102 7.49311L62.3091 26.1818L62.2246 37.73Z" fill="#121212"/>
</svg>
